<svg width="512" height="512" viewBox="0 0 512 512" fill="none" xmlns="http://www.w3.org/2000/svg">
<rect width="512" height="512" fill="#343A4A"/>
<path fill-rule="evenodd" clip-rule="evenodd" d="M216.473 112.071C191.505 125.925 167.248 153.659 155.176 170.837C143.104 188.015 138.207 202.03 131.965 224.168C126.448 243.736 126.704 269.294 126.821 280.932C126.836 282.46 126.849 283.748 126.846 284.751C126.842 286.363 127.01 289.005 127.218 292.283C128.127 306.577 129.804 332.961 121.288 338.743C113.765 343.851 109.426 343.873 95.2299 338.795C83.43 334.575 75.0225 327.102 69.8084 322.468C68.7495 321.527 67.8223 320.703 67.0252 320.047C65.9003 319.121 64.8258 318.109 63.7546 317.1C57.9196 311.602 52.1847 306.199 38.9623 315.422C23.3126 326.337 36.6564 349.812 53.2754 365.283C69.8944 380.755 81.7483 389.329 105.234 398.615C128.72 407.902 164.038 415.7 193.157 418.907C222.276 422.114 241.799 422.385 276.744 421.681C311.69 420.977 329.477 411.391 329.477 411.391C329.477 411.391 321.61 399.759 317.495 390.131C313.38 380.504 309.284 360.398 307.946 347.205C306.608 334.012 306.027 309.593 306.045 300.182C306.059 292.782 306.814 280.665 308.094 270.83C309.375 260.995 316.173 260.226 316.152 271.097C316.143 275.628 315.928 278.652 315.676 282.18C315.324 287.118 314.901 293.041 314.877 305.461C314.836 326.756 318.007 356.862 325.699 376.435C333.39 396.008 339.221 405.455 365.572 415.298C391.256 424.893 422.803 419.43 445.728 399.512C446.323 398.995 446.911 398.469 447.494 397.933C470.545 376.729 479.911 339.935 479.999 294.464C480.088 248.993 471.691 219.043 461.781 190.532C451.87 162.021 434.704 138.445 421.331 127.634C407.958 116.823 380.903 95.1146 329.421 90.8852C277.94 86.6557 241.441 98.2173 216.473 112.071ZM193.206 332.786C191.291 328.416 190.204 323.412 190.204 318.095C190.204 301.017 201.418 287.173 215.253 287.173C229.087 287.173 240.301 301.017 240.301 318.095C240.301 330.949 233.948 341.971 224.906 346.636C235.786 346.559 247.516 342.699 254.772 333.845C262.102 324.901 265.35 309.554 265.35 294.904C265.35 266.332 247.094 243.17 224.573 243.17C202.052 243.17 183.796 266.332 183.796 294.904C183.796 308.403 185.682 322.466 192.356 331.678C192.628 332.053 192.912 332.423 193.206 332.786Z" fill="white"/>
</svg>
