<svg xmlns="http://www.w3.org/2000/svg"><symbol id="pawoo-svg-logo" viewBox="0 0 24 24"><path d="M7.89974066,16.333739 C7.80726625,16.1297051 7.75476465,15.8960825 7.75476465,15.6478244 C7.75476465,14.8504842 8.29633293,14.2041122 8.96439126,14.2041122 C9.63244959,14.2041122 10.1740179,14.8504842 10.1740179,15.6478244 C10.1740179,16.247972 9.86719911,16.7625904 9.43056148,16.9804268 C9.9559687,16.9768264 10.522417,16.7965824 10.8728029,16.3832 C11.2267656,15.9655979 11.3836445,15.2490613 11.3836445,14.5650402 C11.3836445,13.2310286 10.5020217,12.1495985 9.41448489,12.1495985 C8.32694807,12.1495985 7.44532529,13.2310286 7.44532529,14.5650402 C7.44532529,15.1953037 7.5364028,15.8519311 7.85872697,16.2820239 C7.87184859,16.2995327 7.88552934,16.3167735 7.89974066,16.333739 Z M6.05061297,8.74997119 C6.63013061,7.94970782 7.79580939,6.65855784 8.9983397,6.01598248 C10.20087,5.37340713 11.9603488,4.84002931 14.4458736,5.04709822 C16.9313983,5.25416714 18.2411807,6.27328876 18.8886095,6.78077815 C19.5360382,7.28826754 20.3688403,8.39280531 20.8524091,9.72653728 C21.3359779,11.0602693 21.7467159,12.4609551 21.7507818,14.5851344 C21.7548476,16.7093138 21.3095666,18.4264572 20.2008875,19.4127415 C20.1728668,19.4376688 20.1445525,19.4621414 20.1159566,19.486159 C19.0131132,20.4124317 17.491534,20.661835 16.2501096,20.2088755 C14.976496,19.7441711 14.693356,19.3017656 14.3185261,18.3859946 C13.9436963,17.4702237 13.7851282,16.0632012 13.7832241,15.0684358 C13.7813201,14.0736704 13.8394388,13.9712169 13.8384667,13.4633476 C13.8374946,12.9554782 13.5095332,12.9901425 13.449512,13.4493707 C13.3894909,13.908599 13.355307,14.4744919 13.3559687,14.8202033 C13.3568101,15.25981 13.38934,16.4006706 13.4563411,17.0172285 C13.5233423,17.6337864 13.7247277,18.5738005 13.925108,19.0243222 C14.1254884,19.4748439 14.5073009,20.0197077 14.5073009,20.0197077 C14.5073009,20.0197077 13.6505467,20.4642418 11.9640509,20.4906726 C10.2775552,20.5171033 9.33523224,20.500864 7.9292192,20.3456834 C6.52320616,20.1905028 4.81717646,19.8196864 3.68193849,19.3815397 C2.54670051,18.943393 1.97300262,18.5406521 1.16805555,17.8148308 C0.363108481,17.0890094 -0.285226761,15.9899367 0.468098484,15.4828906 C1.22142373,14.9758446 1.47226741,15.4239962 1.82339265,15.7041347 C2.05203305,15.8865511 2.50201375,16.3453358 3.18812245,16.5851631 C3.87423116,16.8249905 4.08362159,16.8247727 4.44578013,16.5875386 C4.94975381,16.2574078 4.70456603,14.4700473 4.70417942,14.0662899 C4.70379282,13.6625326 4.64295912,12.2700956 4.94014453,11.237062 C5.23732994,10.2040285 5.47109534,9.55023456 6.05061297,8.74997119 Z"/></symbol></svg>
