<svg width="32" height="32" viewBox="0 0 32 32" fill="none" xmlns="http://www.w3.org/2000/svg">
<rect width="32" height="32" rx="8" fill="#343A4A"/>
<path fill-rule="evenodd" clip-rule="evenodd" d="M13.5296 7.00443C11.9691 7.87028 10.453 9.60368 9.69849 10.6773C8.94397 11.751 8.63793 12.6269 8.24784 14.0105C7.90302 15.2335 7.91903 16.8309 7.92632 17.5582C7.92728 17.6537 7.92808 17.7342 7.9279 17.7969C7.92761 17.8977 7.93811 18.0628 7.95113 18.2677C8.00792 19.1611 8.11273 20.8101 7.58047 21.1715C7.11029 21.4907 6.83913 21.4921 5.95187 21.1747C5.21438 20.9109 4.68891 20.4439 4.36303 20.1543C4.29685 20.0954 4.2389 20.0439 4.18907 20.0029C4.11877 19.9451 4.05161 19.8818 3.98467 19.8187C3.61998 19.4751 3.26154 19.1374 2.43514 19.7139C1.45704 20.3961 2.29103 21.8632 3.32971 22.8302C4.3684 23.7972 5.10927 24.3331 6.57713 24.9135C8.045 25.4939 10.2524 25.9813 12.0723 26.1817C13.8922 26.3821 15.1124 26.399 17.2965 26.3551C19.4806 26.3111 20.5923 25.712 20.5923 25.712C20.5923 25.712 20.1007 24.9849 19.8435 24.3832C19.5863 23.7815 19.3303 22.5249 19.2466 21.7003C19.163 20.8757 19.1267 19.3495 19.1278 18.7614C19.1287 18.2989 19.1758 17.5416 19.2559 16.9269C19.336 16.3122 19.7608 16.2641 19.7595 16.9436C19.759 17.2268 19.7455 17.4158 19.7298 17.6363C19.7077 17.9448 19.6813 18.3151 19.6798 19.0913C19.6772 20.4222 19.8754 22.3039 20.3562 23.5272C20.8369 24.7505 21.2013 25.3409 22.8482 25.9562C24.4535 26.5558 26.4252 26.2144 27.858 24.9695C27.8952 24.9372 27.932 24.9043 27.9684 24.8708C29.4091 23.5456 29.9944 21.2459 30 18.404C30.0055 15.5621 29.4807 13.6902 28.8613 11.9082C28.2419 10.1263 27.169 8.65279 26.3332 7.97713C25.4974 7.30146 23.8065 5.94466 20.5888 5.68032C17.3712 5.41598 15.0901 6.13858 13.5296 7.00443ZM12.0754 20.7991C11.9557 20.526 11.8877 20.2133 11.8877 19.8809C11.8877 18.8136 12.5887 17.9483 13.4533 17.9483C14.3179 17.9483 15.0188 18.8136 15.0188 19.8809C15.0188 20.6843 14.6217 21.3732 14.0566 21.6648C14.7366 21.66 15.4698 21.4187 15.9232 20.8653C16.3814 20.3063 16.5844 19.3471 16.5844 18.4315C16.5844 16.6457 15.4434 15.1981 14.0358 15.1981C12.6283 15.1981 11.4872 16.6457 11.4872 18.4315C11.4872 19.2752 11.6051 20.1541 12.0223 20.7299C12.0393 20.7533 12.057 20.7764 12.0754 20.7991Z" fill="white"/>
</svg>
